<svg width="99" height="38" viewBox="0 0 99 38" fill="none" xmlns="http://www.w3.org/2000/svg">
<path d="M3.06744 27.078C2.48542 26.4884 1.5357 26.4824 0.946165 27.0644C0.356633 27.6464 0.350541 28.5961 0.932558 29.1856L3.06744 27.078ZM25.6364 35.7517L25.8186 37.2406L25.6364 35.7517ZM47 21.9823L45.7105 21.2161L47 21.9823ZM51.5455 26.5721L51.704 28.0637L51.5455 26.5721ZM98.0257 12.9792C98.6302 12.4128 98.661 11.4635 98.0945 10.859L88.8634 1.00837C88.2969 0.403881 87.3476 0.373064 86.7431 0.939534C86.1387 1.506 86.1078 2.45525 86.6743 3.05974L94.8798 11.8159L86.1237 20.0214C85.5192 20.5878 85.4883 21.5371 86.0548 22.1416C86.6213 22.7461 87.5705 22.7769 88.175 22.2104L98.0257 12.9792ZM2 28.1318L0.932558 29.1856C6.85338 35.1829 15.6794 38.4815 25.8186 37.2406L25.6364 35.7517L25.4542 34.2628C16.1927 35.3963 8.30364 32.3818 3.06744 27.078L2 28.1318ZM25.6364 35.7517L25.8186 37.2406C35.1048 36.1042 43.4577 30.8802 48.2895 22.7485L47 21.9823L45.7105 21.2161C41.3738 28.5144 33.8589 33.2342 25.4542 34.2628L25.6364 35.7517ZM47 21.9823L48.2895 22.7485C50.5641 18.9206 50.904 14.2722 50.0925 10.5868C49.6857 8.73956 48.9691 7.03625 47.965 5.7585C46.962 4.4822 45.5539 3.5 43.8182 3.5L43.8182 5V6.5C44.3283 6.5 44.9522 6.78 45.6062 7.61214C46.2589 8.44283 46.8241 9.69421 47.1627 11.2319C47.8419 14.3165 47.5268 18.1593 45.7105 21.2161L47 21.9823ZM43.8182 5L43.8182 3.5C40.7061 3.5 38.8282 5.70545 37.8047 8.0477C36.7783 10.3967 36.4091 13.2599 36.4091 15.5566H37.9091H39.4091C39.4091 13.5066 39.7486 11.0915 40.5538 9.24893C41.3619 7.39955 42.4385 6.5 43.8182 6.5V5ZM51.5455 26.5721L51.704 28.0637C60.7611 27.101 65.7882 22.951 71.4863 19.4966C77.1368 16.0711 83.8987 12.9602 96.9513 13.3839L97 11.8847L97.0487 10.3855C83.3245 9.93995 75.9954 13.2548 69.9311 16.9313C63.9142 20.5789 59.6026 24.2073 51.3869 25.0805L51.5455 26.5721ZM37.9091 15.5566H36.4091C36.4091 20.9888 38.5507 24.4301 41.7353 26.3254C44.7976 28.1478 48.5823 28.3955 51.704 28.0637L51.5455 26.5721L51.3869 25.0805C48.5758 25.3793 45.5424 25.1 43.2696 23.7474C41.1192 22.4676 39.4091 20.0858 39.4091 15.5566H37.9091Z" fill="url(#paint0_linear_2112_634)" style=""/>
<defs>
<linearGradient id="paint0_linear_2112_634" x1="2" y1="20.5" x2="97" y2="20.5" gradientUnits="userSpaceOnUse">
<stop stop-color="#124DFF" style="stop-color:#124DFF;stop-color:color(display-p3 0.0718 0.3039 1.0000);stop-opacity:1;"/>
<stop offset="1" stop-color="#8013FF" style="stop-color:#8013FF;stop-color:color(display-p3 0.5026 0.0744 1.0000);stop-opacity:1;"/>
</linearGradient>
</defs>
</svg>
