<svg width="18" height="19" viewBox="0 0 18 19" fill="none" xmlns="http://www.w3.org/2000/svg">
<path d="M17.2678 9.51339C17.2678 11.3145 16.742 12.9343 15.6903 14.3726C14.6387 15.8109 13.2807 16.8066 11.6164 17.3595C11.4226 17.3953 11.2807 17.3701 11.1907 17.2837C11.1007 17.1974 11.0557 17.0899 11.0557 16.9613V14.6909C11.0557 13.9947 10.8692 13.4854 10.4963 13.163C10.905 13.1198 11.2729 13.055 11.5999 12.9687C11.9269 12.8824 12.2639 12.7423 12.6111 12.5485C12.9583 12.3547 13.249 12.1159 13.4832 11.8321C13.7174 11.5483 13.9076 11.1717 14.0536 10.7024C14.1996 10.233 14.2731 9.69295 14.274 9.08216C14.274 8.2142 13.9907 7.47528 13.424 6.86541C13.6894 6.21237 13.6609 5.48034 13.3386 4.66933C13.1374 4.60503 12.8467 4.64453 12.4665 4.78781C12.0862 4.93109 11.756 5.08907 11.4759 5.26175L11.0667 5.51938C10.399 5.33293 9.7101 5.2397 9.00012 5.2397C8.29013 5.2397 7.60127 5.33293 6.93354 5.51938C6.81873 5.44039 6.66626 5.34349 6.47614 5.22868C6.28601 5.11387 5.98659 4.97564 5.57786 4.81399C5.16914 4.65233 4.86053 4.60411 4.65203 4.66933C4.33608 5.48034 4.31082 6.21237 4.57626 6.86541C4.00956 7.47528 3.72621 8.2142 3.72621 9.08216C3.72621 9.69203 3.79969 10.2303 3.94664 10.6969C4.0936 11.1634 4.28189 11.54 4.51151 11.8266C4.74113 12.1131 5.02999 12.3533 5.37809 12.5471C5.7262 12.7409 6.06328 12.881 6.38934 12.9673C6.7154 13.0537 7.08325 13.1184 7.49289 13.1616C7.20633 13.4197 7.03044 13.7894 6.96523 14.2707C6.8146 14.3423 6.65294 14.396 6.48027 14.4319C6.30759 14.4677 6.10323 14.4856 5.86718 14.4856C5.63113 14.4856 5.396 14.4084 5.16179 14.2541C4.92758 14.0998 4.72827 13.8757 4.56386 13.5818C4.42793 13.3522 4.25387 13.1657 4.0417 13.0224C3.82954 12.8792 3.65181 12.7933 3.50853 12.7648L3.2936 12.7331C3.14297 12.7331 3.03872 12.7492 2.98086 12.7813C2.923 12.8135 2.90509 12.8548 2.92713 12.9053C2.94917 12.9559 2.98132 13.0059 3.02357 13.0555C3.06582 13.1051 3.11266 13.1483 3.1641 13.185L3.23987 13.2387C3.39785 13.3104 3.55399 13.4468 3.7083 13.6479C3.8626 13.8491 3.97557 14.0319 4.04722 14.1963L4.15468 14.4442C4.24836 14.717 4.40634 14.9375 4.62861 15.1056C4.85089 15.2736 5.09107 15.3811 5.34916 15.4279C5.60725 15.4748 5.85662 15.5 6.09726 15.5037C6.3379 15.5074 6.53721 15.495 6.69519 15.4665L6.94318 15.4238C6.94318 15.6966 6.94502 16.0158 6.94869 16.3813C6.95237 16.7469 6.9542 16.9407 6.9542 16.9627C6.9542 17.0922 6.90736 17.1997 6.81368 17.2851C6.71999 17.3705 6.57671 17.3958 6.38383 17.3609C4.71954 16.808 3.36157 15.8123 2.30991 14.374C1.25825 12.9356 0.732422 11.3159 0.732422 9.51477C0.732422 8.01489 1.10211 6.63166 1.84149 5.36508C2.58086 4.09849 3.58384 3.09551 4.85043 2.35613C6.11701 1.61676 7.50024 1.24707 9.00012 1.24707C10.5 1.24707 11.8832 1.61676 13.1498 2.35613C14.4164 3.09551 15.4194 4.09849 16.1588 5.36508C16.8981 6.63166 17.2678 8.01489 17.2678 9.51477V9.51339Z" fill="white" fill-opacity="0.7" style="fill:white;fill-opacity:0.7;"/>
</svg>
