<svg width="1013" height="395" viewBox="0 0 1013 395" fill="none" xmlns="http://www.w3.org/2000/svg">
<path d="M242.717 158.2H213.017L221.717 145H169.217L146.339 179.894C137.297 193.685 144.975 212.252 161.116 215.629L186.317 220.9L165.017 251.8L149.974 248.076C112.635 238.833 95.9609 195.19 117.625 163.404L150.617 115H271.517L242.717 158.2Z" fill="#8C29FF"/>
<path d="M258 244.3H234L276.6 181.6V216.4L258 244.3Z" fill="#F67759"/>
<path d="M191.101 167.2L173.101 194.5H214.801L157.801 279.7H195.301L270.601 167.2H191.101Z" fill="#8C29FF"/>
<path d="M333.5 227.75V217.5H323.25V207.25H313V176.5H323.25V166.25H333.5V156H384.75V166.25H343.75V176.5H333.5V207.25H343.75V217.5H364.25V197H354V186.75H384.75V227.75H333.5ZM405.25 227.75V217.5H395V186.75H405.25V176.5H456.5V186.75H466.75V217.5H456.5V227.75H405.25ZM415.5 217.5H446.25V186.75H415.5V217.5ZM477 227.75V156H497.5V186.75H528.25V156H548.75V227.75H528.25V197H497.5V227.75H477ZM569.25 227.75V217.5H559V207.25H569.25V197H610.25V186.75H569.25V176.5H620.5V186.75H630.75V227.75H569.25ZM579.5 217.5H610.25V207.25H579.5V217.5ZM651.25 227.75V217.5H641V186.75H651.25V176.5H712.75V186.75H661.5V217.5H712.75V227.75H651.25ZM723 227.75V156H743.5V197H764V186.75H774.25V176.5H794.75V186.75H784.5V197H774.25V207.25H784.5V217.5H794.75V227.75H774.25V217.5H764V207.25H743.5V227.75H723ZM815.25 227.75V217.5H805V186.75H815.25V176.5H866.5V186.75H876.75V207.25H825.5V217.5H866.5V227.75H815.25ZM825.5 197H856.25V186.75H825.5V197ZM917.75 186.75H928V197H917.75V227.75H897.25V176.5H917.75V186.75ZM958.75 176.5V186.75H928V176.5H958.75Z" fill="white"/>
</svg>
